<?xml version="1.0" encoding="UTF-8" standalone="no"?>
<!-- Created with Inkscape (http://www.inkscape.org/) -->

<svg
   xmlns:dc="http://purl.org/dc/elements/1.1/"
   xmlns:cc="http://creativecommons.org/ns#"
   xmlns:rdf="http://www.w3.org/1999/02/22-rdf-syntax-ns#"
   xmlns:svg="http://www.w3.org/2000/svg"
   xmlns="http://www.w3.org/2000/svg"
   version="1.2"
   width="2000"
   height="2000"
   id="svg2"
   xml:space="preserve"><metadata
     id="metadata8"><rdf:RDF><cc:Work
         rdf:about=""><dc:format>image/svg+xml</dc:format><dc:type
           rdf:resource="http://purl.org/dc/dcmitype/StillImage" /><dc:title></dc:title></cc:Work></rdf:RDF></metadata><defs
     id="defs6"><clipPath
       id="clipPath16"><path
         d="m 0,419.53 297.64,0 L 297.64,0 0,0 0,419.53 z"
         id="path18" /></clipPath></defs><g
     transform="matrix(1.25,0,0,-1.25,0,2000)"
     id="g10"><rect
       width="1600"
       height="1600"
       x="0"
       y="-1600"
       transform="scale(1,-1)"
       id="rect3035"
       style="fill:#93c623;fill-opacity:1;stroke:none" /><g
       transform="matrix(0.66666667,0,0,0.66666667,266.66666,23.736238)"
       id="g3897"><path
         d="m 773.86503,849.60577 c 0,-10.25786 -8.31516,-18.5756 -18.57302,-18.5756 -10.26045,0 -18.57819,8.31774 -18.57819,18.5756 0,10.25786 8.31774,18.57302 18.57819,18.57302 10.25786,0 18.57302,-8.31516 18.57302,-18.57302"
         id="path22"
         style="fill:#ffffff;fill-opacity:1;fill-rule:nonzero;stroke:none" /><path
         d="m 852.36424,849.60577 c 0,-10.25786 -8.32032,-18.5756 -18.57302,-18.5756 -10.26303,0 -18.57819,8.31774 -18.57819,18.5756 0,10.25786 8.31516,18.57302 18.57819,18.57302 10.2527,0 18.57302,-8.31516 18.57302,-18.57302"
         id="path26"
         style="fill:#ffffff;fill-opacity:1;fill-rule:nonzero;stroke:none" /><path
         d="m 507.27029,610.98485 35.49488,0 c 13.11386,0 21.52448,12.2599 21.52448,24.94549 0,12.97196 -10.12112,24.80359 -22.52292,24.80359 l -34.49644,0 0,-49.74908 z M 500,566.08349 l 0,101.20608 42.19501,0 c 17.10503,0 29.36235,-15.96212 29.36235,-31.35923 0,-14.96626 -9.54838,-28.3665 -23.80515,-30.50269 l 25.23186,-39.34416 -8.41062,0 -24.51722,38.20124 -32.78594,0 0,-38.20124 -7.27029,0 z"
         id="path30"
         style="fill:#ffffff;fill-opacity:1;fill-rule:nonzero;stroke:none" /><path
         d="m 633.99615,572.06896 c 24.23342,0 40.05623,22.66482 40.05623,44.61757 0,23.23498 -16.96314,44.61757 -40.05623,44.61757 -24.23342,0 -40.05623,-22.52292 -40.05623,-44.61757 0,-23.23499 16.53745,-44.61757 40.05623,-44.61757 m -47.32393,44.61757 c 0,26.94236 20.52604,51.31768 47.46841,51.31768 28.08012,0 47.18203,-26.08582 47.18203,-51.31768 0,-27.22616 -20.38414,-51.31769 -47.32651,-51.31769 -28.08012,0.14448 -47.32393,25.37376 -47.32393,51.31769"
         id="path34"
         style="fill:#ffffff;fill-opacity:1;fill-rule:nonzero;stroke:none" /><path
         d="m 749.89218,614.12154 -41.05466,0 0,-41.48036 40.05622,0 c 11.26146,0 19.95588,10.12113 19.95588,20.66794 0,10.83319 -8.12425,20.81242 -18.95744,20.81242 m -41.05466,46.61187 0,-40.48192 37.06349,0 c 10.97508,0 18.81553,9.83475 18.81553,20.24225 0,10.97508 -7.41218,20.23967 -17.96157,20.23967 l -37.91745,0 z m 40.05622,-94.65045 -47.32393,0 0,101.20609 47.18203,0 c 14.2542,0 23.09309,-13.11386 23.09309,-25.79945 0,-10.11855 -5.55978,-19.52761 -14.54057,-23.52136 11.54526,-3.41843 18.81554,-13.68403 18.81554,-25.65756 0,-14.82436 -12.25732,-26.22772 -27.22616,-26.22772"
         id="path38"
         style="fill:#ffffff;fill-opacity:1;fill-rule:nonzero;stroke:none" /><path
         d="m 837.13148,572.06896 c 24.23342,0 40.05881,22.66482 40.05881,44.61757 0,23.23498 -16.96572,44.61757 -40.05881,44.61757 -24.23342,0 -40.05365,-22.52292 -40.05365,-44.61757 0,-23.23499 16.53745,-44.61757 40.05365,-44.61757 m -47.32393,44.61757 c 0,26.94236 20.52604,51.31768 47.47099,51.31768 28.08012,0 47.17945,-26.08582 47.17945,-51.31768 0,-27.22616 -20.38414,-51.31769 -47.32651,-51.31769 -28.08012,0.14448 -47.32393,25.37376 -47.32393,51.31769"
         id="path42"
         style="fill:#ffffff;fill-opacity:1;fill-rule:nonzero;stroke:none" /><path
         d="m 915.39669,667.29008 23.94447,-71.84373 23.52136,71.84373 24.66169,0 -38.48762,-101.20866 -19.53018,0 -38.77141,101.20866 24.66169,0 z"
         id="path46"
         style="fill:#ffffff;fill-opacity:1;fill-rule:nonzero;stroke:none" /><path
         d="m 1076.618,566.08271 0,60.58227 -21.9502,-44.0474 -12.5462,0 -21.9502,44.0474 0,-60.58227 -23.37948,0 0,101.20866 25.37638,0 26.2277,-52.88629 26.3722,52.88629 25.2318,0 0,-101.20866 -23.382,0 z"
         id="path50"
         style="fill:#ffffff;fill-opacity:1;fill-rule:nonzero;stroke:none" /><path
         d="m 795.23755,795.15242 c -39.69761,0 -87.54269,36.82355 -87.54269,43.47465 l 2.55156,34.12752 c 0,6.65883 5.39209,12.04834 12.04577,12.04834 l 73.45361,9.03239 72.02174,-9.03239 c 6.6511,0 12.04319,-5.38951 12.04319,-12.04834 l 2.55156,-34.12752 c 0,-6.6511 -47.43229,-43.47465 -87.12474,-43.47465 m -0.20898,142.7174 c 6.37763,0 11.54268,-5.16763 11.54268,-11.54268 0,-6.37504 -5.16505,-11.54009 -11.54268,-11.54009 -6.37504,0 -11.54267,5.16505 -11.54267,11.54009 0,6.37505 5.16763,11.54268 11.54267,11.54268 M 914.19623,878.8381 c -0.33539,1.64858 -5.72231,3.28169 -6.12221,4.90705 -12.55659,50.763 -58.40479,88.3915 -113.04545,88.3915 -54.77223,0 -100.71589,-37.822 -113.13316,-88.77075 -0.31218,-1.27965 -5.61912,-2.56705 -5.89002,-3.86218 -1.59698,-7.68565 -2.43805,-15.6551 -2.43805,-23.80773 0,-7.3451 0.67853,-14.51477 1.97366,-21.47288 0.20382,-1.07842 5.40757,-2.16716 5.66814,-3.22751 12.28054,-49.67427 60.45585,-91.74801 113.81943,-91.74801 56.27118,0 103.22618,39.91433 114.08001,92.97864 0.20124,0.98554 5.41015,1.97108 5.58816,2.96952 1.17904,6.65625 1.79307,13.50343 1.79307,20.50024 0,7.92301 -0.79205,15.66543 -2.29358,23.14211"
         id="path54"
         style="fill:#ffffff;fill-opacity:1;fill-rule:nonzero;stroke:none" /><path
         d="m 773.13439,1034.6312 c 0,0 13.25318,-7.6005 18.97034,-21.3877 5.71715,-13.78211 1.73372,-28.53166 1.73372,-28.53166 0,0 -13.2506,7.60052 -18.96776,21.38516 -5.71974,13.7872 -1.7363,28.5342 -1.7363,28.5342"
         id="path58"
         style="fill:#ffffff;fill-opacity:1;fill-rule:nonzero;stroke:none" /></g><flowRoot
       transform="matrix(1.1858,0,0,-1.1858,-141.58034,1610.6685)"
       id="flowRoot3909"
       xml:space="preserve"
       style="font-size:40px;font-style:normal;font-weight:normal;line-height:125%;letter-spacing:0px;word-spacing:0px;fill:#000000;fill-opacity:1;stroke:none;font-family:Sans"><flowRegion
         id="flowRegion3911"><rect
           width="1068.0808"
           height="435.37607"
           x="491.75571"
           y="343.06519"
           id="rect3913" /></flowRegion><flowPara
         id="flowPara3915"
         style="font-size:144px;font-style:normal;font-variant:normal;font-weight:500;font-stretch:normal;text-align:start;line-height:125%;writing-mode:lr-tb;text-anchor:start;fill:#ffffff;fill-opacity:1;font-family:Brush Script Std;-inkscape-font-specification:Brush Script Std Medium">ContractR</flowPara></flowRoot><flowRoot
       transform="matrix(1.229655,0,0,-1.229655,178.2653,2216.6945)"
       id="flowRoot3917"
       xml:space="preserve"
       style="font-size:40px;font-style:normal;font-weight:normal;line-height:125%;letter-spacing:0px;word-spacing:0px;fill:#000000;fill-opacity:1;stroke:none;font-family:Sans"><flowRegion
         id="flowRegion3919"><rect
           width="219.25414"
           height="153.47789"
           x="457.30148"
           y="1122.9834"
           id="rect3921" /></flowRegion><flowPara
         id="flowPara3923"
         style="font-size:72px;font-style:normal;font-variant:normal;font-weight:normal;font-stretch:normal;text-align:start;line-height:125%;writing-mode:lr-tb;text-anchor:start;fill:#ffffff;fill-opacity:1;font-family:Sans;-inkscape-font-specification:Sans">BY</flowPara></flowRoot></g></svg>